<mxfile host="app.diagrams.net" modified="2021-12-21T10:29:12.577Z" agent="5.0 (Macintosh; Intel Mac OS X 10_15_7) AppleWebKit/537.36 (KHTML, like Gecko) Chrome/96.0.4664.110 Safari/537.36" etag="qk3GY6zhnGx5JxsSoLAm" version="16.0.0" type="github">
  <diagram id="adxMsUsY2K5jievwT3nB" name="Page-1">
    <mxGraphModel dx="1823" dy="648" grid="0" gridSize="10" guides="1" tooltips="1" connect="1" arrows="1" fold="1" page="1" pageScale="1" pageWidth="827" pageHeight="1169" math="0" shadow="0">
      <root>
        <mxCell id="0" />
        <mxCell id="1" parent="0" />
        <mxCell id="D-l0Tsuuit9CthAwnkIn-22" value="" style="rounded=1;whiteSpace=wrap;html=1;shadow=0;labelBackgroundColor=none;sketch=0;fontFamily=Comic Sans MS;fontSize=12;fontColor=default;strokeColor=#474747;fillColor=none;" parent="1" vertex="1">
          <mxGeometry x="33" y="462" width="674" height="258" as="geometry" />
        </mxCell>
        <mxCell id="D-l0Tsuuit9CthAwnkIn-21" value="" style="rounded=1;whiteSpace=wrap;html=1;shadow=0;labelBackgroundColor=none;sketch=0;fontFamily=Comic Sans MS;fontSize=12;fillColor=none;" parent="1" vertex="1">
          <mxGeometry x="50" y="21" width="625.75" height="402" as="geometry" />
        </mxCell>
        <mxCell id="D-l0Tsuuit9CthAwnkIn-9" value="Spark SQL 逻辑计划 ( LogicalPlan )" style="swimlane;rounded=1;labelBackgroundColor=none;sketch=0;fontFamily=Comic Sans MS;fontSize=12;strokeColor=#6c8ebf;fillColor=#dae8fc;html=1;swimlaneLine=1;shadow=0;horizontal=1;connectable=1;allowArrows=1;dropTarget=1;collapsible=0;expand=1;" parent="1" vertex="1">
          <mxGeometry x="190" y="501" width="467" height="122" as="geometry">
            <mxRectangle x="173" y="448" width="230" height="23" as="alternateBounds" />
          </mxGeometry>
        </mxCell>
        <mxCell id="D-l0Tsuuit9CthAwnkIn-16" value="" style="html=1;shadow=0;dashed=0;align=center;verticalAlign=middle;shape=mxgraph.arrows2.arrow;dy=0.61;dx=20;direction=north;notch=0;rounded=1;labelBackgroundColor=none;sketch=0;fontFamily=Comic Sans MS;fontSize=12;fontColor=default;strokeColor=#474747;fillColor=none;" parent="D-l0Tsuuit9CthAwnkIn-9" vertex="1">
          <mxGeometry x="141" y="82" width="16.5" height="75" as="geometry" />
        </mxCell>
        <mxCell id="D-l0Tsuuit9CthAwnkIn-17" value="" style="html=1;shadow=0;dashed=0;align=center;verticalAlign=middle;shape=mxgraph.arrows2.arrow;dy=0.61;dx=20;direction=north;notch=0;rounded=1;labelBackgroundColor=none;sketch=0;fontFamily=Comic Sans MS;fontSize=12;fontColor=default;strokeColor=#474747;fillColor=none;" parent="D-l0Tsuuit9CthAwnkIn-9" vertex="1">
          <mxGeometry x="315" y="84" width="16.5" height="75" as="geometry" />
        </mxCell>
        <mxCell id="myyAIWmpNg9GB4v1K9A1-1" value="" style="rounded=0;orthogonalLoop=1;jettySize=auto;html=1;fontFamily=Comic Sans MS;fontColor=#3D3D3D;strokeWidth=2;strokeColor=#303030;" parent="1" source="myyAIWmpNg9GB4v1K9A1-2" target="myyAIWmpNg9GB4v1K9A1-5" edge="1">
          <mxGeometry relative="1" as="geometry" />
        </mxCell>
        <mxCell id="myyAIWmpNg9GB4v1K9A1-2" value="&lt;div style=&quot;font-size: 9.8pt&quot;&gt;catalyst/parser/ParserInterfac&lt;span style=&quot;font-size: 9.8pt&quot;&gt;e&lt;/span&gt;&lt;/div&gt;&lt;div&gt;&lt;font color=&quot;#5471ff&quot; style=&quot;font-size: 11px&quot;&gt;sql、expression等标识符解析&lt;/font&gt;&lt;/div&gt;" style="rounded=1;whiteSpace=wrap;html=1;fontFamily=Comic Sans MS;fontColor=#3B3B3B;labelBackgroundColor=none;sketch=1;glass=0;shadow=0;strokeColor=#525252;" parent="1" vertex="1">
          <mxGeometry x="130" y="69" width="210" height="49" as="geometry" />
        </mxCell>
        <mxCell id="myyAIWmpNg9GB4v1K9A1-3" value="" style="rounded=0;orthogonalLoop=1;jettySize=auto;html=1;strokeWidth=2;fontFamily=Comic Sans MS;fontColor=#3D3D3D;exitX=0.5;exitY=1;exitDx=0;exitDy=0;strokeColor=#303030;" parent="1" source="myyAIWmpNg9GB4v1K9A1-5" target="myyAIWmpNg9GB4v1K9A1-6" edge="1">
          <mxGeometry relative="1" as="geometry" />
        </mxCell>
        <mxCell id="myyAIWmpNg9GB4v1K9A1-4" style="rounded=0;orthogonalLoop=1;jettySize=auto;html=1;strokeWidth=2;fontFamily=Comic Sans MS;fontColor=#3D3D3D;exitX=0.5;exitY=1;exitDx=0;exitDy=0;strokeColor=#303030;" parent="1" source="myyAIWmpNg9GB4v1K9A1-5" target="myyAIWmpNg9GB4v1K9A1-8" edge="1">
          <mxGeometry relative="1" as="geometry" />
        </mxCell>
        <mxCell id="myyAIWmpNg9GB4v1K9A1-5" value="&lt;div style=&quot;font-size: 9.8pt&quot;&gt;AbstractSqlParser&lt;/div&gt;&lt;div&gt;&lt;font style=&quot;font-size: 11px&quot; color=&quot;#5471ff&quot;&gt;定义了返回AstBuilder函数&lt;/font&gt;&lt;/div&gt;" style="rounded=1;whiteSpace=wrap;html=1;fontFamily=Comic Sans MS;labelBackgroundColor=none;shadow=0;glass=0;comic=1;fillColor=#fff2cc;strokeColor=#d6b656;allowArrows=1;connectable=1;portConstraintRotation=0;imageAspect=1;absoluteArcSize=0;noLabel=0;snapToPoint=0;perimeter=rectanglePerimeter;autosize=0;container=0;dropTarget=0;collapsible=0;recursiveResize=1;expand=1;editable=1;movable=1;resizable=1;movableLabel=0;treeFolding=0;sketch=1;" parent="1" vertex="1">
          <mxGeometry x="151.25" y="213" width="167.5" height="50" as="geometry" />
        </mxCell>
        <mxCell id="myyAIWmpNg9GB4v1K9A1-6" value="&lt;div&gt;&lt;div style=&quot;font-size: 12px&quot;&gt;CatalystSqlParser&lt;/div&gt;&lt;div&gt;&lt;font style=&quot;font-size: 11px&quot; color=&quot;#5471ff&quot;&gt;仅用于Catalyst内部&lt;/font&gt;&lt;/div&gt;&lt;/div&gt;" style="rounded=1;whiteSpace=wrap;html=1;fontFamily=Comic Sans MS;fontColor=#000000;labelBackgroundColor=none;fontSize=12;sketch=1;" parent="1" vertex="1">
          <mxGeometry x="80" y="336" width="135" height="51" as="geometry" />
        </mxCell>
        <mxCell id="myyAIWmpNg9GB4v1K9A1-7" value="" style="edgeStyle=none;rounded=0;orthogonalLoop=1;jettySize=auto;html=1;strokeWidth=2;fontFamily=Comic Sans MS;fontSize=12;fontColor=#000000;" parent="1" source="myyAIWmpNg9GB4v1K9A1-8" target="myyAIWmpNg9GB4v1K9A1-11" edge="1">
          <mxGeometry relative="1" as="geometry" />
        </mxCell>
        <mxCell id="myyAIWmpNg9GB4v1K9A1-8" value="&lt;div&gt;&lt;font style=&quot;font-size: 12px&quot;&gt;SparkSqlParser&lt;/font&gt;&lt;/div&gt;&lt;div style=&quot;font-size: 11px&quot;&gt;&lt;font style=&quot;font-size: 11px&quot; color=&quot;#5471ff&quot;&gt;用于外部调用&lt;/font&gt;&lt;/div&gt;" style="rounded=1;whiteSpace=wrap;html=1;fontFamily=Comic Sans MS;labelBackgroundColor=none;sketch=1;fillColor=#d5e8d4;strokeColor=#82b366;" parent="1" vertex="1">
          <mxGeometry x="245" y="336" width="135" height="51" as="geometry" />
        </mxCell>
        <mxCell id="myyAIWmpNg9GB4v1K9A1-9" value="" style="edgeStyle=none;rounded=0;orthogonalLoop=1;jettySize=auto;html=1;strokeWidth=2;fontFamily=Comic Sans MS;fontSize=12;fontColor=#3D3D3D;startArrow=classic;startFill=1;endArrow=none;endFill=0;strokeColor=#303030;" parent="1" source="myyAIWmpNg9GB4v1K9A1-11" target="myyAIWmpNg9GB4v1K9A1-14" edge="1">
          <mxGeometry relative="1" as="geometry" />
        </mxCell>
        <mxCell id="myyAIWmpNg9GB4v1K9A1-10" value="继承" style="edgeLabel;html=1;align=center;verticalAlign=middle;resizable=0;points=[];fontSize=12;fontFamily=Comic Sans MS;fontColor=#3D3D3D;" parent="myyAIWmpNg9GB4v1K9A1-9" vertex="1" connectable="0">
          <mxGeometry x="0.1083" relative="1" as="geometry">
            <mxPoint as="offset" />
          </mxGeometry>
        </mxCell>
        <mxCell id="myyAIWmpNg9GB4v1K9A1-11" value="&lt;div&gt;&lt;font style=&quot;font-size: 12px&quot;&gt;SparkSqlAstBuilder&lt;/font&gt;&lt;/div&gt;&lt;div style=&quot;font-size: 11px&quot;&gt;&lt;font style=&quot;font-size: 11px&quot; color=&quot;#5471ff&quot;&gt;用于生成抽象语法树AST&lt;/font&gt;&lt;/div&gt;" style="rounded=1;whiteSpace=wrap;html=1;fontFamily=Comic Sans MS;labelBackgroundColor=none;shadow=0;comic=1;glass=0;sketch=1;fillColor=#d5e8d4;strokeColor=#82b366;" parent="1" vertex="1">
          <mxGeometry x="460" y="336" width="135" height="51" as="geometry" />
        </mxCell>
        <mxCell id="myyAIWmpNg9GB4v1K9A1-12" value="" style="edgeStyle=none;rounded=1;orthogonalLoop=1;jettySize=auto;html=1;startArrow=classic;startFill=1;endArrow=none;endFill=0;strokeWidth=2;fontFamily=Comic Sans MS;fontSize=12;fontColor=#3D3D3D;strokeColor=#474747;" parent="1" source="myyAIWmpNg9GB4v1K9A1-14" target="myyAIWmpNg9GB4v1K9A1-15" edge="1">
          <mxGeometry relative="1" as="geometry" />
        </mxCell>
        <mxCell id="myyAIWmpNg9GB4v1K9A1-13" value="继承" style="edgeLabel;html=1;align=center;verticalAlign=middle;resizable=0;points=[];fontSize=12;fontFamily=Comic Sans MS;fontColor=#000000;" parent="myyAIWmpNg9GB4v1K9A1-12" vertex="1" connectable="0">
          <mxGeometry x="0.25" y="1" relative="1" as="geometry">
            <mxPoint as="offset" />
          </mxGeometry>
        </mxCell>
        <mxCell id="myyAIWmpNg9GB4v1K9A1-14" value="&lt;div&gt;&lt;font style=&quot;font-size: 12px&quot;&gt;AstBuilder&lt;/font&gt;&lt;/div&gt;" style="rounded=1;whiteSpace=wrap;html=1;fontFamily=Comic Sans MS;fontColor=#3B3B3B;labelBackgroundColor=none;sketch=1;strokeColor=#525252;" parent="1" vertex="1">
          <mxGeometry x="460" y="205" width="135" height="51" as="geometry" />
        </mxCell>
        <mxCell id="myyAIWmpNg9GB4v1K9A1-15" value="&lt;div&gt;&lt;font style=&quot;font-size: 12px&quot;&gt;SqlBaseBaseVisitor&lt;/font&gt;&lt;/div&gt;" style="rounded=1;whiteSpace=wrap;html=1;fontFamily=Comic Sans MS;fontColor=#3B3B3B;labelBackgroundColor=none;sketch=1;strokeColor=#525252;" parent="1" vertex="1">
          <mxGeometry x="460" y="74" width="135" height="51" as="geometry" />
        </mxCell>
        <mxCell id="D-l0Tsuuit9CthAwnkIn-1" value="Spark Sql 编译器" style="text;html=1;strokeColor=none;fillColor=none;align=center;verticalAlign=middle;whiteSpace=wrap;rounded=0;fontFamily=Comic Sans MS;fontSize=15;" parent="1" vertex="1">
          <mxGeometry x="311" y="21" width="156" height="31" as="geometry" />
        </mxCell>
        <mxCell id="D-l0Tsuuit9CthAwnkIn-5" value="" style="edgeStyle=orthogonalEdgeStyle;rounded=0;orthogonalLoop=1;jettySize=auto;html=1;fontFamily=Comic Sans MS;fontSize=12;fontColor=default;" parent="1" source="D-l0Tsuuit9CthAwnkIn-2" target="D-l0Tsuuit9CthAwnkIn-4" edge="1">
          <mxGeometry relative="1" as="geometry" />
        </mxCell>
        <mxCell id="D-l0Tsuuit9CthAwnkIn-2" value="Unresolved&lt;br&gt;LogicalPlan" style="rounded=1;whiteSpace=wrap;html=1;labelBackgroundColor=none;sketch=1;fontFamily=Comic Sans MS;fontSize=12;fontColor=default;strokeColor=#82b366;fillColor=#d5e8d4;fontStyle=2" parent="1" vertex="1">
          <mxGeometry x="216" y="544" width="92" height="46" as="geometry" />
        </mxCell>
        <mxCell id="D-l0Tsuuit9CthAwnkIn-8" value="" style="edgeStyle=orthogonalEdgeStyle;rounded=0;orthogonalLoop=1;jettySize=auto;html=1;fontFamily=Comic Sans MS;fontSize=12;fontColor=default;" parent="1" source="D-l0Tsuuit9CthAwnkIn-3" target="D-l0Tsuuit9CthAwnkIn-2" edge="1">
          <mxGeometry relative="1" as="geometry" />
        </mxCell>
        <mxCell id="D-l0Tsuuit9CthAwnkIn-3" value="&lt;div&gt;&lt;font style=&quot;font-size: 12px&quot;&gt;SqlQuery&lt;/font&gt;&lt;/div&gt;" style="rounded=1;whiteSpace=wrap;html=1;fontFamily=Comic Sans MS;fontColor=#3B3B3B;labelBackgroundColor=none;sketch=1;strokeColor=#525252;" parent="1" vertex="1">
          <mxGeometry x="61" y="544" width="81" height="45" as="geometry" />
        </mxCell>
        <mxCell id="D-l0Tsuuit9CthAwnkIn-7" value="" style="edgeStyle=orthogonalEdgeStyle;rounded=0;orthogonalLoop=1;jettySize=auto;html=1;fontFamily=Comic Sans MS;fontSize=12;fontColor=default;" parent="1" source="D-l0Tsuuit9CthAwnkIn-4" target="D-l0Tsuuit9CthAwnkIn-6" edge="1">
          <mxGeometry relative="1" as="geometry" />
        </mxCell>
        <mxCell id="D-l0Tsuuit9CthAwnkIn-4" value="Analyzed&lt;br&gt;LogicalPlan" style="rounded=1;whiteSpace=wrap;html=1;labelBackgroundColor=none;sketch=1;fontFamily=Comic Sans MS;fontSize=12;fontColor=default;strokeColor=#82b366;fillColor=#d5e8d4;fontStyle=2" parent="1" vertex="1">
          <mxGeometry x="388" y="544" width="92" height="46" as="geometry" />
        </mxCell>
        <mxCell id="D-l0Tsuuit9CthAwnkIn-6" value="Optimized&lt;br&gt;LogicalPlan" style="rounded=1;whiteSpace=wrap;html=1;labelBackgroundColor=none;sketch=1;fontFamily=Comic Sans MS;fontSize=12;fontColor=default;strokeColor=#82b366;fillColor=#d5e8d4;fontStyle=2" parent="1" vertex="1">
          <mxGeometry x="547" y="544" width="92" height="46" as="geometry" />
        </mxCell>
        <mxCell id="D-l0Tsuuit9CthAwnkIn-10" value="SparkSqlParser" style="rounded=1;whiteSpace=wrap;html=1;fontFamily=Comic Sans MS;fontColor=#3B3B3B;labelBackgroundColor=none;sketch=1;strokeColor=#525252;" parent="1" vertex="1">
          <mxGeometry x="116" y="667" width="103" height="25" as="geometry" />
        </mxCell>
        <mxCell id="D-l0Tsuuit9CthAwnkIn-12" value="" style="html=1;shadow=0;dashed=0;align=center;verticalAlign=middle;shape=mxgraph.arrows2.arrow;dy=0.61;dx=20;direction=north;notch=0;rounded=1;labelBackgroundColor=none;sketch=0;fontFamily=Comic Sans MS;fontSize=12;fontColor=default;strokeColor=#474747;fillColor=none;" parent="1" vertex="1">
          <mxGeometry x="156.25" y="583" width="16.5" height="75" as="geometry" />
        </mxCell>
        <mxCell id="D-l0Tsuuit9CthAwnkIn-13" value="Analyzer" style="rounded=1;whiteSpace=wrap;html=1;fontFamily=Comic Sans MS;fontColor=#3B3B3B;labelBackgroundColor=none;sketch=1;strokeColor=#525252;" parent="1" vertex="1">
          <mxGeometry x="294" y="665" width="103" height="25" as="geometry" />
        </mxCell>
        <mxCell id="D-l0Tsuuit9CthAwnkIn-14" value="Optimizer" style="rounded=1;whiteSpace=wrap;html=1;fontFamily=Comic Sans MS;fontColor=#3B3B3B;labelBackgroundColor=none;sketch=1;strokeColor=#525252;" parent="1" vertex="1">
          <mxGeometry x="472" y="667" width="103" height="25" as="geometry" />
        </mxCell>
        <mxCell id="D-l0Tsuuit9CthAwnkIn-18" value="parse()" style="text;html=1;strokeColor=none;fillColor=none;align=center;verticalAlign=middle;whiteSpace=wrap;rounded=0;shadow=0;labelBackgroundColor=none;sketch=0;fontFamily=Comic Sans MS;fontSize=12;fontColor=default;" parent="1" vertex="1">
          <mxGeometry x="107" y="630" width="60" height="30" as="geometry" />
        </mxCell>
        <mxCell id="D-l0Tsuuit9CthAwnkIn-19" value="apply()" style="text;html=1;strokeColor=none;fillColor=none;align=center;verticalAlign=middle;whiteSpace=wrap;rounded=0;shadow=0;labelBackgroundColor=none;sketch=0;fontFamily=Comic Sans MS;fontSize=12;fontColor=default;" parent="1" vertex="1">
          <mxGeometry x="285" y="628" width="60" height="30" as="geometry" />
        </mxCell>
        <mxCell id="D-l0Tsuuit9CthAwnkIn-20" value="apply()" style="text;html=1;strokeColor=none;fillColor=none;align=center;verticalAlign=middle;whiteSpace=wrap;rounded=0;shadow=0;labelBackgroundColor=none;sketch=0;fontFamily=Comic Sans MS;fontSize=12;fontColor=default;" parent="1" vertex="1">
          <mxGeometry x="458" y="629" width="60" height="30" as="geometry" />
        </mxCell>
        <mxCell id="6UvMCw6a5YDU8YtgbOK_-15" style="edgeStyle=none;shape=connector;rounded=0;orthogonalLoop=1;jettySize=auto;html=1;entryX=0.598;entryY=0.056;entryDx=0;entryDy=0;entryPerimeter=0;labelBackgroundColor=default;fontFamily=Comic Sans MS;fontSize=11;fontColor=default;endArrow=classic;strokeColor=default;" edge="1" parent="1" source="6UvMCw6a5YDU8YtgbOK_-3" target="6UvMCw6a5YDU8YtgbOK_-4">
          <mxGeometry relative="1" as="geometry" />
        </mxCell>
        <mxCell id="6UvMCw6a5YDU8YtgbOK_-16" style="edgeStyle=none;shape=connector;rounded=0;orthogonalLoop=1;jettySize=auto;html=1;entryX=0.5;entryY=0;entryDx=0;entryDy=0;labelBackgroundColor=default;fontFamily=Comic Sans MS;fontSize=11;fontColor=default;endArrow=classic;strokeColor=default;" edge="1" parent="1" source="6UvMCw6a5YDU8YtgbOK_-3" target="6UvMCw6a5YDU8YtgbOK_-5">
          <mxGeometry relative="1" as="geometry" />
        </mxCell>
        <mxCell id="6UvMCw6a5YDU8YtgbOK_-3" value="&lt;table border=&quot;1&quot; width=&quot;100%&quot; cellpadding=&quot;4&quot; style=&quot;width: 100% ; height: 100% ; border-collapse: collapse&quot;&gt;&lt;tbody&gt;&lt;tr&gt;&lt;th style=&quot;text-align: center&quot;&gt;&lt;b&gt;TreeNode&lt;/b&gt;&lt;/th&gt;&lt;/tr&gt;&lt;tr&gt;&lt;td&gt;+id&amp;nbsp; &amp;nbsp; :Long&lt;br&gt;+self:Product&lt;/td&gt;&lt;/tr&gt;&lt;tr&gt;&lt;td&gt;+children():Seq[BaseType]&lt;br&gt;+transform(rule: PartialFunction[BaseType, BaseType]): BaseType&lt;br&gt;+transformDown(rule: PartialFunction[BaseType, BaseType]): BaseType&lt;br&gt;+transformUp(rule: PartialFunction[BaseType, BaseType]): BaseType&lt;br&gt;&lt;/td&gt;&lt;/tr&gt;&lt;/tbody&gt;&lt;/table&gt;" style="text;html=1;strokeColor=none;fillColor=#fff2cc;overflow=fill;sketch=0;rounded=0;glass=0;shadow=0;fontFamily=Comic Sans MS;align=left;" vertex="1" parent="1">
          <mxGeometry x="151.25" y="783" width="444.75" height="147" as="geometry" />
        </mxCell>
        <mxCell id="6UvMCw6a5YDU8YtgbOK_-7" value="" style="rounded=0;orthogonalLoop=1;jettySize=auto;html=1;fontFamily=Comic Sans MS;" edge="1" parent="1" source="6UvMCw6a5YDU8YtgbOK_-4" target="6UvMCw6a5YDU8YtgbOK_-6">
          <mxGeometry relative="1" as="geometry" />
        </mxCell>
        <mxCell id="6UvMCw6a5YDU8YtgbOK_-4" value="QueryPlan" style="rounded=1;whiteSpace=wrap;html=1;shadow=0;glass=0;sketch=0;fontFamily=Comic Sans MS;" vertex="1" parent="1">
          <mxGeometry x="258" y="973" width="87" height="36" as="geometry" />
        </mxCell>
        <mxCell id="6UvMCw6a5YDU8YtgbOK_-5" value="Expression" style="rounded=1;whiteSpace=wrap;html=1;shadow=0;glass=0;sketch=0;fontFamily=Comic Sans MS;" vertex="1" parent="1">
          <mxGeometry x="451" y="969" width="87" height="36" as="geometry" />
        </mxCell>
        <mxCell id="6UvMCw6a5YDU8YtgbOK_-9" value="" style="edgeStyle=none;shape=connector;rounded=0;orthogonalLoop=1;jettySize=auto;html=1;labelBackgroundColor=default;fontFamily=Comic Sans MS;fontSize=11;fontColor=default;endArrow=classic;strokeColor=default;entryX=1;entryY=0.25;entryDx=0;entryDy=0;" edge="1" parent="1" source="6UvMCw6a5YDU8YtgbOK_-6" target="6UvMCw6a5YDU8YtgbOK_-12">
          <mxGeometry relative="1" as="geometry">
            <mxPoint x="221.23076923076928" y="1163" as="targetPoint" />
          </mxGeometry>
        </mxCell>
        <mxCell id="6UvMCw6a5YDU8YtgbOK_-13" style="edgeStyle=none;shape=connector;rounded=0;orthogonalLoop=1;jettySize=auto;html=1;entryX=0.25;entryY=0;entryDx=0;entryDy=0;labelBackgroundColor=default;fontFamily=Comic Sans MS;fontSize=11;fontColor=default;endArrow=classic;strokeColor=default;" edge="1" parent="1" source="6UvMCw6a5YDU8YtgbOK_-6" target="6UvMCw6a5YDU8YtgbOK_-10">
          <mxGeometry relative="1" as="geometry" />
        </mxCell>
        <mxCell id="6UvMCw6a5YDU8YtgbOK_-14" style="edgeStyle=none;shape=connector;rounded=0;orthogonalLoop=1;jettySize=auto;html=1;entryX=0;entryY=0.25;entryDx=0;entryDy=0;labelBackgroundColor=default;fontFamily=Comic Sans MS;fontSize=11;fontColor=default;endArrow=classic;strokeColor=default;" edge="1" parent="1" source="6UvMCw6a5YDU8YtgbOK_-6" target="6UvMCw6a5YDU8YtgbOK_-11">
          <mxGeometry relative="1" as="geometry" />
        </mxCell>
        <mxCell id="6UvMCw6a5YDU8YtgbOK_-6" value="LogicalPlan" style="whiteSpace=wrap;html=1;fontFamily=Comic Sans MS;rounded=1;shadow=0;glass=0;sketch=0;" vertex="1" parent="1">
          <mxGeometry x="255.5" y="1039" width="89.5" height="41" as="geometry" />
        </mxCell>
        <mxCell id="6UvMCw6a5YDU8YtgbOK_-34" style="edgeStyle=none;shape=connector;rounded=0;orthogonalLoop=1;jettySize=auto;html=1;entryX=0.5;entryY=0;entryDx=0;entryDy=0;labelBackgroundColor=default;fontFamily=Comic Sans MS;fontSize=11;fontColor=default;endArrow=classic;strokeColor=default;exitX=0.5;exitY=1;exitDx=0;exitDy=0;" edge="1" parent="1" source="6UvMCw6a5YDU8YtgbOK_-10" target="6UvMCw6a5YDU8YtgbOK_-26">
          <mxGeometry relative="1" as="geometry" />
        </mxCell>
        <mxCell id="6UvMCw6a5YDU8YtgbOK_-10" value="UnaryNode:class" style="whiteSpace=wrap;html=1;fontFamily=Comic Sans MS;rounded=1;shadow=0;glass=0;sketch=0;" vertex="1" parent="1">
          <mxGeometry x="274" y="1109" width="110" height="36" as="geometry" />
        </mxCell>
        <mxCell id="6UvMCw6a5YDU8YtgbOK_-30" style="edgeStyle=none;shape=connector;rounded=0;orthogonalLoop=1;jettySize=auto;html=1;entryX=0.25;entryY=0;entryDx=0;entryDy=0;labelBackgroundColor=default;fontFamily=Comic Sans MS;fontSize=11;fontColor=default;endArrow=classic;strokeColor=default;exitX=0.5;exitY=1;exitDx=0;exitDy=0;" edge="1" parent="1" source="6UvMCw6a5YDU8YtgbOK_-11" target="6UvMCw6a5YDU8YtgbOK_-17">
          <mxGeometry relative="1" as="geometry">
            <mxPoint x="592" y="1120" as="sourcePoint" />
          </mxGeometry>
        </mxCell>
        <mxCell id="6UvMCw6a5YDU8YtgbOK_-11" value="BinaryNode:class" style="whiteSpace=wrap;html=1;fontFamily=Comic Sans MS;rounded=1;shadow=0;glass=0;sketch=0;" vertex="1" parent="1">
          <mxGeometry x="476.5" y="1086" width="118.5" height="38" as="geometry" />
        </mxCell>
        <mxCell id="6UvMCw6a5YDU8YtgbOK_-31" style="edgeStyle=none;shape=connector;rounded=0;orthogonalLoop=1;jettySize=auto;html=1;entryX=0.5;entryY=0;entryDx=0;entryDy=0;labelBackgroundColor=default;fontFamily=Comic Sans MS;fontSize=11;fontColor=default;endArrow=classic;strokeColor=default;" edge="1" parent="1" source="6UvMCw6a5YDU8YtgbOK_-12" target="6UvMCw6a5YDU8YtgbOK_-22">
          <mxGeometry relative="1" as="geometry" />
        </mxCell>
        <mxCell id="6UvMCw6a5YDU8YtgbOK_-12" value="LeafNode:class" style="whiteSpace=wrap;html=1;fontFamily=Comic Sans MS;rounded=1;shadow=0;glass=0;sketch=0;" vertex="1" parent="1">
          <mxGeometry x="21.5" y="1104" width="114" height="37" as="geometry" />
        </mxCell>
        <mxCell id="6UvMCw6a5YDU8YtgbOK_-17" value="BinaryNode:trait" style="swimlane;fontStyle=0;childLayout=stackLayout;horizontal=1;startSize=26;fillColor=#e1d5e7;horizontalStack=0;resizeParent=1;resizeParentMax=0;resizeLast=0;collapsible=0;marginBottom=0;rounded=0;shadow=0;glass=0;sketch=0;fontFamily=Comic Sans MS;fontSize=11;strokeColor=#9673a6;" vertex="1" parent="1">
          <mxGeometry x="480" y="1188" width="224" height="103" as="geometry" />
        </mxCell>
        <mxCell id="6UvMCw6a5YDU8YtgbOK_-18" value="+left:LogicalPlan" style="text;strokeColor=none;fillColor=none;align=left;verticalAlign=top;spacingLeft=4;spacingRight=4;overflow=hidden;rotatable=0;points=[[0,0.5],[1,0.5]];portConstraint=eastwest;rounded=0;shadow=0;glass=0;sketch=0;fontFamily=Comic Sans MS;fontSize=11;fontColor=default;" vertex="1" parent="6UvMCw6a5YDU8YtgbOK_-17">
          <mxGeometry y="26" width="224" height="25" as="geometry" />
        </mxCell>
        <mxCell id="6UvMCw6a5YDU8YtgbOK_-19" value="+right:LogicalPlan" style="text;strokeColor=none;fillColor=none;align=left;verticalAlign=top;spacingLeft=4;spacingRight=4;overflow=hidden;rotatable=0;points=[[0,0.5],[1,0.5]];portConstraint=eastwest;rounded=0;shadow=0;glass=0;sketch=0;fontFamily=Comic Sans MS;fontSize=11;fontColor=default;" vertex="1" parent="6UvMCw6a5YDU8YtgbOK_-17">
          <mxGeometry y="51" width="224" height="26" as="geometry" />
        </mxCell>
        <mxCell id="6UvMCw6a5YDU8YtgbOK_-20" value="+children:Seq[LogicalPlan]=Seq(left,right)" style="text;strokeColor=none;fillColor=none;align=left;verticalAlign=top;spacingLeft=4;spacingRight=4;overflow=hidden;rotatable=0;points=[[0,0.5],[1,0.5]];portConstraint=eastwest;rounded=0;shadow=0;glass=0;sketch=0;fontFamily=Comic Sans MS;fontSize=11;fontColor=default;" vertex="1" parent="6UvMCw6a5YDU8YtgbOK_-17">
          <mxGeometry y="77" width="224" height="26" as="geometry" />
        </mxCell>
        <mxCell id="6UvMCw6a5YDU8YtgbOK_-22" value="LeafNode:trait" style="swimlane;fontStyle=0;childLayout=stackLayout;horizontal=1;startSize=26;fillColor=#e1d5e7;horizontalStack=0;resizeParent=1;resizeParentMax=0;resizeLast=0;collapsible=0;marginBottom=0;rounded=0;shadow=0;glass=0;sketch=0;fontFamily=Comic Sans MS;fontSize=11;strokeColor=#9673a6;" vertex="1" parent="1">
          <mxGeometry x="-43" y="1191" width="243" height="77" as="geometry" />
        </mxCell>
        <mxCell id="6UvMCw6a5YDU8YtgbOK_-23" value="+children:Seq[LogicalPlan]= Nil" style="text;strokeColor=none;fillColor=none;align=left;verticalAlign=top;spacingLeft=4;spacingRight=4;overflow=hidden;rotatable=0;points=[[0,0.5],[1,0.5]];portConstraint=eastwest;rounded=0;shadow=0;glass=0;sketch=0;fontFamily=Comic Sans MS;fontSize=11;fontColor=default;" vertex="1" parent="6UvMCw6a5YDU8YtgbOK_-22">
          <mxGeometry y="26" width="243" height="25" as="geometry" />
        </mxCell>
        <mxCell id="6UvMCw6a5YDU8YtgbOK_-24" value="+producedAttributes:AtributeSet=outputSet" style="text;strokeColor=none;fillColor=none;align=left;verticalAlign=top;spacingLeft=4;spacingRight=4;overflow=hidden;rotatable=0;points=[[0,0.5],[1,0.5]];portConstraint=eastwest;rounded=0;shadow=0;glass=0;sketch=0;fontFamily=Comic Sans MS;fontSize=11;fontColor=default;" vertex="1" parent="6UvMCw6a5YDU8YtgbOK_-22">
          <mxGeometry y="51" width="243" height="26" as="geometry" />
        </mxCell>
        <mxCell id="6UvMCw6a5YDU8YtgbOK_-26" value="UnaryNode:trait" style="swimlane;fontStyle=0;childLayout=stackLayout;horizontal=1;startSize=26;fillColor=#e1d5e7;horizontalStack=0;resizeParent=1;resizeParentMax=0;resizeLast=0;collapsible=0;marginBottom=0;rounded=0;shadow=0;glass=0;sketch=0;fontFamily=Comic Sans MS;fontSize=11;strokeColor=#9673a6;swimlaneLine=1;noLabel=0;portConstraint=none;expand=1;metaEdit=0;backgroundOutline=0;" vertex="1" parent="1">
          <mxGeometry x="229" y="1188" width="200" height="155" as="geometry" />
        </mxCell>
        <mxCell id="6UvMCw6a5YDU8YtgbOK_-27" value="+child:LogicalPlan" style="text;strokeColor=none;fillColor=none;align=left;verticalAlign=top;spacingLeft=4;spacingRight=4;overflow=hidden;rotatable=0;points=[[0,0.5],[1,0.5]];portConstraint=eastwest;rounded=0;shadow=0;glass=0;sketch=0;fontFamily=Comic Sans MS;fontSize=11;fontColor=default;" vertex="1" parent="6UvMCw6a5YDU8YtgbOK_-26">
          <mxGeometry y="26" width="200" height="25" as="geometry" />
        </mxCell>
        <mxCell id="6UvMCw6a5YDU8YtgbOK_-28" value="+children:Seq[LogicalPlan]=child::Nil" style="text;strokeColor=none;fillColor=none;align=left;verticalAlign=top;spacingLeft=4;spacingRight=4;overflow=hidden;rotatable=0;points=[[0,0.5],[1,0.5]];portConstraint=eastwest;rounded=0;shadow=0;glass=0;sketch=0;fontFamily=Comic Sans MS;fontSize=11;fontColor=default;" vertex="1" parent="6UvMCw6a5YDU8YtgbOK_-26">
          <mxGeometry y="51" width="200" height="26" as="geometry" />
        </mxCell>
        <mxCell id="6UvMCw6a5YDU8YtgbOK_-29" value="+getAliasedConstraints" style="text;strokeColor=none;fillColor=none;align=left;verticalAlign=top;spacingLeft=4;spacingRight=4;overflow=hidden;rotatable=0;points=[[0,0.5],[1,0.5]];portConstraint=eastwest;rounded=0;shadow=0;glass=0;sketch=0;fontFamily=Comic Sans MS;fontSize=11;fontColor=default;" vertex="1" parent="6UvMCw6a5YDU8YtgbOK_-26">
          <mxGeometry y="77" width="200" height="26" as="geometry" />
        </mxCell>
        <mxCell id="6UvMCw6a5YDU8YtgbOK_-35" value="+validConstraints:set[Expression]" style="text;strokeColor=none;fillColor=none;align=left;verticalAlign=top;spacingLeft=4;spacingRight=4;overflow=hidden;rotatable=0;points=[[0,0.5],[1,0.5]];portConstraint=eastwest;rounded=0;shadow=0;glass=0;sketch=0;fontFamily=Comic Sans MS;fontSize=11;fontColor=default;" vertex="1" parent="6UvMCw6a5YDU8YtgbOK_-26">
          <mxGeometry y="103" width="200" height="26" as="geometry" />
        </mxCell>
        <mxCell id="6UvMCw6a5YDU8YtgbOK_-44" value="+statistics:Statistics" style="text;strokeColor=none;fillColor=none;align=left;verticalAlign=top;spacingLeft=4;spacingRight=4;overflow=hidden;rotatable=0;points=[[0,0.5],[1,0.5]];portConstraint=eastwest;rounded=0;shadow=0;glass=0;sketch=0;fontFamily=Comic Sans MS;fontSize=11;fontColor=default;" vertex="1" parent="6UvMCw6a5YDU8YtgbOK_-26">
          <mxGeometry y="129" width="200" height="26" as="geometry" />
        </mxCell>
      </root>
    </mxGraphModel>
  </diagram>
</mxfile>
